<?xml version="1.0" standalone="no"?>
<!DOCTYPE svg PUBLIC "-//W3C//DTD SVG 1.1//EN" "http://www.w3.org/Graphics/SVG/1.1/DTD/svg11.dtd">
<svg xmlns="http://www.w3.org/2000/svg" version="1.1" width="90.0" height="18.0">

	<metadata>
		<rdf:RDF xmlns:rdf = "http://www.w3.org/1999/02/22-rdf-syntax-ns#" xmlns:rdfs = "http://www.w3.org/2000/01/rdf-schema#" xmlns:dc = "http://purl.org/dc/elements/1.1/">
			<rdf:Description rdf:about="http://likethought.com/opacity/">
				<dc:title>icons</dc:title>
				<dc:creator></dc:creator>
				<dc:rights></dc:rights>
				<dc:description></dc:description>
				<dc:format>image/svg+xml</dc:format>
				<dc:language>en</dc:language>
			</rdf:Description>
		</rdf:RDF>
	</metadata>
	<g>
		<title>Layer 1</title>
<svg version="1.1" id="Layer_1" xmlns="http://www.w3.org/2000/svg" xmlns:xlink="http://www.w3.org/1999/xlink" x="0px" y="0px"
	 width="90px" height="18px" viewBox="0 0 90 18" enable-background="new 0 0 90 18" xml:space="preserve">
<g>
	<path fill="#B3B3B3" d="M84,15.795h3v-3l-7-7l-3,3l3,3h1v1h1.5v1.5H84V15.795z"/>
	<g>
		<g>
			<path fill="#B3B3B3" d="M78,2.794c-2.209,0-4,1.791-4,4s1.791,4,4,4s4-1.792,4-4S80.209,2.794,78,2.794z M76.855,6.726
				c-0.575,0-1.041-0.466-1.041-1.042c0-0.575,0.466-1.041,1.041-1.041s1.041,0.466,1.041,1.041
				C77.896,6.26,77.431,6.726,76.855,6.726z"/>
		</g>
	</g>
</g>
<g>
	<rect x="2.499" y="7.17" fill="#B3B3B3" width="12" height="8"/>
	<path fill="none" stroke="#B3B3B3" stroke-width="1.5" stroke-linecap="square" d="M8.499,2.42L8.499,2.42
		c1.795,0,3.25,1.455,3.25,3.25v2c0,1.795-1.455,3.25-3.25,3.25l0,0c-1.795,0-3.25-1.455-3.25-3.25v-2
		C5.249,3.875,6.704,2.42,8.499,2.42z"/>
</g>
<g>
	<g>
		<path fill="#B3B3B3" d="M39.333,3.794h-15c-0.553,0-1,0.447-1,1v9c0,0.553,0.447,1,1,1h15c0.553,0,1-0.447,1-1v-9
			C40.333,4.242,39.885,3.794,39.333,3.794z M25.688,12.119c0-1.265,0.887-1.375,2.028-1.385v-0.54
			c-0.811-0.256-1.403-1.005-1.403-1.9c0-1.104,0.896-2,2-2s2,0.896,2,2c0,0.895-0.592,1.644-1.403,1.9v0.539
			c1.141,0.005,2.028,0.083,2.028,1.386H25.688z"/>
	</g>
</g>
<g>
	<path fill="none" stroke="#B3B3B3" stroke-linecap="square" d="M55.166,2.741h4c0.276,0,0.5,0.224,0.5,0.5v2
		c0,0.276-0.224,0.5-0.5,0.5h-4c-0.276,0-0.5-0.224-0.5-0.5v-2C54.666,2.965,54.89,2.741,55.166,2.741z"/>
	<g>
		<g>
			<g>
				<path fill="#B3B3B3" d="M63.666,4.241h-1.501v11h1.501c0.828,0,1.5-0.672,1.5-1.5v-8C65.166,4.913,64.494,4.241,63.666,4.241z"
					/>
				<rect x="52.666" y="4.241" fill="#B3B3B3" width="8.999" height="11"/>
				<path fill="#B3B3B3" d="M52.166,4.241h-1.5c-0.828,0-1.5,0.672-1.5,1.5v8c0,0.828,0.672,1.5,1.5,1.5h1.5V4.241z"/>
			</g>
		</g>
	</g>
</g>
</svg>
		<rect x="40.5" y="26.5" width="18.0" height="6.0" stroke="rgb(70.2%, 70.2%, 70.2%)" stroke-width="1.0" stroke-linecap="square" stroke-linejoin="miter" fill="none" />
	</g>

</svg>
