<?xml version="1.0" encoding="UTF-8"?>
<svg width="512px" height="512px" viewBox="0 0 512 512" version="1.1" xmlns="http://www.w3.org/2000/svg" xmlns:xlink="http://www.w3.org/1999/xlink">
    <!-- Generator: Sketch 64 (93537) - https://sketch.com -->
    <title>Icon</title>
    <desc>Created with Sketch.</desc>
    <defs>
        <linearGradient x1="50%" y1="0%" x2="50%" y2="100%" id="linearGradient-1">
            <stop stop-color="#DF7EF4" offset="0%"></stop>
            <stop stop-color="#B051DE" offset="100%"></stop>
        </linearGradient>
        <linearGradient x1="-0.0154130703%" y1="49.9967275%" x2="100%" y2="49.9967275%" id="linearGradient-2" offset="51%">
            <stop stop-color="#EEC7B1"></stop>
            <stop stop-color="#E2B69F"></stop>
        </linearGradient>
    </defs>
    <g id="Icon" stroke="none" stroke-width="1" fill="none" fill-rule="evenodd">
        <rect id="Background" fill="url(#linearGradient-1)" x="0" y="0" width="512" height="512"></rect>
        <g id="incognito-icon" transform="translate(36.000000, 62.000000)">
            <path d="M297,235.163361 C297,255.445121 283.578453,272.028863 269.803329,265.779501 C264.564094,263.376354 258.363011,265.562369 255.789303,270.719746 C254.881473,272.53531 253.916307,274.245762 252.922472,275.913214 C243.63394,291.894954 231.49291,302 221.009864,302 C210.311806,302 198.032213,291.527063 188.734125,274.952876 C187.74029,273.213757 186.765567,271.42686 185.867293,269.530074 C184.570778,266.835644 182.20568,264.806792 179.345253,263.935271 C178.333956,263.625328 177.282894,263.464378 176.225185,263.457491 C174.322015,263.458664 172.453486,263.966587 170.811652,264.929053 C168.548843,266.31672 165.954683,267.070835 163.300555,267.112507 C151.747226,267.112507 142,252.473329 142,235.139472 C142,217.805616 151.747226,203.214216 163.037762,203.214216 L163.697133,203.266771 C167.985913,203.55276 172.025586,201.230494 173.936498,197.380522 C174.472993,196.297493 174.828102,195.133764 174.98767,193.935729 C175.518033,190.013155 176.072287,186.219582 176.65521,182.46901 C176.817663,181.379671 176.989673,180.304667 177.166461,179.229662 C177.612413,176.49676 178.064735,173.814822 178.523428,171.183847 C178.709772,170.142287 178.891338,169.091171 179.072904,168.063944 C179.703607,164.638262 180.343866,161.274691 181.012793,158.030565 C181.027366,157.980671 181.036969,157.929459 181.041461,157.877675 C181.041461,157.839453 181.041461,157.791675 181.074908,157.748675 L181.074908,157.748675 C188.968249,119.669612 199.75709,94.68172 211.869451,86.2393481 C212.132244,86.0577917 212.399815,85.8714576 212.667386,85.6994568 C213.321772,85.2760618 214.003321,84.8962017 214.707614,84.5623405 C215.19858,84.3306788 215.702738,84.1280693 216.217478,83.9555599 C216.738286,83.7692257 217.239982,83.5590026 217.760789,83.430002 C218.817822,83.1571234 219.903914,83.0127464 220.99553,83 C221.56576,83.0037661 222.135296,83.040457 222.701295,83.1098894 L223.097873,83.167223 C224.372596,83.3547081 225.619453,83.6980972 226.810419,84.1896721 L226.925092,84.2374501 C238.870222,89.2350285 253.276048,111.069573 264.33246,176.611427 C264.330158,176.633664 264.330158,176.65608 264.33246,176.678317 C264.746558,179.165958 265.15747,181.714117 265.565197,184.322796 C265.612978,184.576019 265.651202,184.800576 265.689427,185.082466 C266.129007,187.917294 266.56381,190.825381 266.993835,193.806728 C267.557595,198.903265 271.654248,202.885523 276.764951,203.304994 C287.921702,204.20322 297,218.503174 297,235.163361 Z" id="Path" fill="url(#linearGradient-2)" fill-rule="nonzero"></path>
            <path d="M408.121106,79.8855211 C395.086997,144.733438 390.197253,161.917902 354.14125,167.057618 C343.473615,168.355122 332.737046,169.00377 321.990794,169 C299.838536,169 284.658979,166.005721 278.102869,160.329641 C277.358212,159.683921 276.58231,159.043409 275.759541,158.366446 C275.207558,157.913401 274.634744,157.439526 274.056723,156.944822 C267.771398,127.783308 258.804264,100.756833 244.926556,84.244126 L242,66.3826986 C280.935692,56.0355686 313.4038,51 341.211289,51 L341.78931,51 C363.269814,51.0520741 402.512742,57.3790812 406.361007,64.018533 C406.605754,64.4403335 406.881746,64.8465117 407.168153,65.2631048 C408.443965,67.0856994 410.016598,69.3353019 408.121106,79.8855211 Z" id="Path" fill-opacity="0.85" fill="#FFFFFF"></path>
            <path d="M163.909422,160.330414 C157.352707,166.005994 142.17175,169 120.017447,169 C109.266778,169.002552 98.5258264,168.353966 87.8536079,167.057799 C51.8046934,161.8925 46.9040825,144.709552 33.8843936,79.9246297 C31.9835191,69.3232713 33.5510896,67.0738671 34.8166034,65.2618471 C35.1082444,64.8452908 35.3842618,64.4391484 35.6290319,64.0173851 C39.477652,57.3628978 78.7346179,51.0364487 100.206689,51 L100.789971,51 C128.58961,51 161.07113,56.0299176 200,66.3813422 L196.734662,86.3916666 C185.454404,100.908654 176.318054,124.029266 169.325613,155.753501 C168.252791,156.701167 167.216423,157.565521 166.247759,158.356978 C165.430122,159.013055 164.648941,159.65351 163.909422,160.330414 Z" id="Path" fill-opacity="0.85" fill="#FFFFFF"></path>
            <polygon id="Rectangle" fill="#FFFFFF" transform="translate(129.997589, 105.574569) rotate(-345.000000) translate(-129.997589, -105.574569) " points="125.272272 39.0679553 134.790214 39.0631477 134.722907 172.081183 125.204964 172.08599"></polygon>
            <polygon id="Rectangle" fill="#FFFFFF" transform="translate(103.665359, 109.445748) rotate(-345.000000) translate(-103.665359, -109.445748) " points="92.0646368 45.5818536 115.330719 45.5701014 115.266082 173.309643 92 173.321395"></polygon>
            <polygon id="Rectangle" fill="#FFFFFF" transform="translate(310.949693, 108.030791) rotate(-345.000000) translate(-310.949693, -108.030791) " points="290.522934 42.5868209 331.449693 42.5681243 331.376452 173.474762 290.449693 173.493459"></polygon>
            <path d="M438.746941,56.949127 C435.542558,51.9478071 421.634581,47.5865797 405.225273,44.1472766 C400.490439,43.2874508 396.018651,42.4515091 391.704691,41.6633355 L393.617756,41.5582457 C393.617756,41.5582457 414.183196,40.6028837 414.183196,27.2278161 C414.183196,15.2619075 398.878682,11.9420246 394.574288,11.4643436 C393.976455,11.3974683 397.443884,9.61094141 396.965618,7.64289575 C396.487352,5.6748501 390.370329,4.47109402 382.13937,3.82144788 C363.96526,2.38840492 341.486756,5.73217181 341.486756,5.73217181 C341.486756,5.73217181 344.74853,3.25778431 342.921554,1.43304295 C341.486756,0 339.095425,0 337.182361,0 C261.616324,0 248.703141,49.6788224 248.703141,49.6788224 L249.831849,49.6167239 C241.701326,51.3745899 233.417758,53.0082589 225.105493,54.2502294 C222.666337,54.613267 217.132798,54.637151 214.999732,54.2502294 C207.26617,52.8936154 199.556521,51.2790537 191.966438,49.5976166 L193.200365,49.6788224 C193.200365,49.6788224 180.287181,0 104.721145,0 C102.80808,0 100.41675,0 98.9819519,1.43304295 C97.1549755,3.25778431 100.41675,5.73217181 100.41675,5.73217181 C100.41675,5.73217181 77.9382454,2.38840492 59.7641353,3.82144788 C51.5331765,4.47109402 45.4161536,5.73217181 44.9378875,7.64289575 C44.4596215,9.55361969 47.9270504,11.3974683 47.3292178,11.4643436 C43.0248233,11.9420246 27.7203095,15.2619075 27.7203095,27.2278161 C27.7203095,40.6028837 48.2857499,41.5582457 48.2857499,41.5582457 L48.7401027,41.5821297 C43.52222,42.504054 38.8065167,43.3973174 34.7699512,44.1472766 C18.3606428,47.5865797 4.45266591,51.9430303 1.25306599,56.9443502 C-0.30129869,59.3614159 -0.659998232,64.0379128 1.63089618,68.2940504 C3.13265159,71.0837073 6.9396494,75.6360071 15.878442,76.3429749 C30.0159866,146.648062 35.7456139,173.068598 81.9748109,179.674926 C86.1118123,180.26725 101.899375,181.948687 119.528262,181.948687 C136.74584,181.948687 150.282363,180.4217 160.137832,177.367726 C159.707393,180.009302 159.272171,182.598333 158.865645,185.344999 C140.332835,189.945067 126.314857,210.404143 126.314857,234.866186 C126.314857,258.468404 139.376303,278.287388 156.923885,283.79505 C136.999321,290.850398 119.351303,301.946927 106.811167,314.61025 C82.6156874,339.010195 90.9136035,343.624593 60.8306686,361.026511 C60.8306686,361.026511 96.0167023,380 142.800688,380 C192.97558,380 202.182201,346.08465 220.002395,346.08465 C237.822588,346.08465 247.024427,380 297.199319,380 C343.978522,380 379.169338,361.026511 379.169338,361.026511 C349.081621,343.624593 357.389102,339.010195 333.188839,314.61025 C320.643921,301.970811 303.000686,290.850398 283.076122,283.79505 C300.628486,278.287388 313.68515,258.477958 313.68515,234.866186 C313.68515,211.459818 301.441539,192.06597 284.118742,186.223932 C283.71381,183.548918 283.289748,180.864351 282.846554,178.17023 C292.411876,180.654172 304.908968,181.948687 320.476528,181.948687 C338.095849,181.948687 353.888194,180.26725 358.025196,179.674926 C404.254393,173.063821 409.98402,146.648062 424.13113,76.3429749 C433.074705,75.6312303 436.87692,71.0884841 438.383458,68.2940504 C440.664788,64.0379128 440.29174,59.3614159 438.746941,56.949127 Z M160.066093,155.724001 C154.044723,160.930724 140.103267,163.677396 119.757829,163.677396 C109.884936,163.679737 100.020966,163.084731 90.2201177,161.895639 C57.1145413,157.157044 52.6140577,141.393571 40.6574063,81.9605033 C38.9117352,72.2349185 40.3513161,70.1713366 41.5135026,68.5090068 C41.7813316,68.126862 42.0348126,67.7542708 42.2595976,67.3673492 C45.7939838,61.2625863 81.8456791,55.4587623 101.564589,55.4253246 L102.100247,55.4253246 C127.630089,55.4253246 157.459543,60.0397229 193.20993,69.5360209 L190.211202,87.8933012 C179.851959,101.211047 171.461578,122.421675 165.04006,151.525185 C164.054831,152.394564 163.103082,153.187515 162.213507,153.91359 C161.462629,154.515468 160.74523,155.103016 160.066093,155.724001 Z M293.401886,234.87574 C293.401886,254.059408 280.689575,269.746452 267.647259,263.832761 C262.684661,261.558554 256.810606,263.628343 254.375376,268.509258 C253.514497,270.224133 252.596226,271.853025 251.654042,273.419819 C242.858729,288.519315 231.361214,298.096818 221.418062,298.096818 C211.283604,298.096818 199.652174,288.189715 190.847296,272.512225 C189.890764,270.864225 188.982058,269.168458 188.116397,267.381931 C186.88634,264.833806 184.646135,262.91499 181.937199,262.089226 C180.979741,261.802776 179.985787,261.656359 178.986298,261.654536 C177.183593,261.656435 175.413927,262.137882 173.859286,263.049365 C171.719791,264.356501 169.269463,265.068932 166.761817,265.112946 C155.823873,265.112946 146.593338,251.260198 146.593338,234.870963 C146.593338,218.481729 155.828655,204.633757 166.537032,204.633757 L167.163561,204.686302 C172.502076,205.015918 177.179594,201.148882 177.852807,195.849204 C178.359769,192.142399 178.881079,188.550238 179.431085,185.010622 C179.588913,183.978831 179.751523,182.961371 179.909351,181.94391 C180.330225,179.358064 180.757476,176.821578 181.191104,174.334452 C181.368063,173.350429 181.545021,172.356853 181.712414,171.382384 C182.315029,168.143707 182.917645,164.962351 183.553739,161.895639 C183.556418,161.847909 183.556418,161.800066 183.553739,161.752335 L183.582435,161.632915 C183.582435,161.632915 183.582435,161.632915 183.582435,161.632915 C191.057733,125.615769 201.278279,101.961006 212.756664,93.9980641 C213.005362,93.8213222 213.263626,93.649357 213.512324,93.4821687 C214.134424,93.0831009 214.781399,92.7241099 215.449302,92.4073865 C215.915682,92.1878776 216.394806,91.9964626 216.8841,91.8341693 C217.362366,91.6622041 217.840632,91.4615781 218.342811,91.3564883 C219.344608,91.098339 220.37396,90.9620085 221.408497,90.9504595 C221.947387,90.9527748 222.485636,90.9878697 223.020253,91.0555493 C223.13982,91.0555493 223.273734,91.0842101 223.398084,91.1080942 C224.603976,91.284498 225.784219,91.6052599 226.913339,92.0634561 L227.02334,92.1112242 C238.348681,96.840266 251.974481,117.490415 262.443724,179.48863 C262.441434,179.509266 262.441434,179.530092 262.443724,179.550728 C262.839091,181.904103 263.229675,184.319577 263.615476,186.797149 C263.65852,187.035989 263.691999,187.27483 263.73026,187.518447 C264.147946,190.196645 264.559255,192.948088 264.964187,195.772775 C265.015008,196.223284 265.094885,196.670048 265.20332,197.110281 C266.261146,201.322349 269.885575,204.395024 274.218635,204.753177 C284.817011,205.589119 293.401886,219.112268 293.401886,234.87574 Z M401.19349,81.9079584 C389.222491,141.393571 384.731572,157.157044 351.616431,161.871755 C341.818887,163.061968 331.958032,163.656979 322.088284,163.65352 C301.742846,163.65352 287.801391,160.90684 281.780021,155.700117 C281.096101,155.107792 280.383484,154.520245 279.627824,153.89926 C279.120862,153.483677 278.594769,153.048987 278.063894,152.595191 C272.291223,125.845055 264.055481,101.053412 251.309691,85.9061483 L248.621835,69.5216905 C284.381788,60.0301693 314.201677,55.4109942 339.741084,55.4109942 L340.27196,55.4109942 C360.000435,55.4587623 396.042565,61.2625863 399.576951,67.3530188 C399.801736,67.7399404 400.055217,68.1125316 400.318263,68.4946764 C401.490015,70.1665598 402.934378,72.2301417 401.19349,81.9079584 Z" id="Shape" fill="#000000" fill-rule="nonzero"></path>
        </g>
    </g>
</svg>