<svg xmlns="http://www.w3.org/2000/svg" xmlns:xlink="http://www.w3.org/1999/xlink" viewBox="0 0 920 795.51"><defs><linearGradient id="a" x1="349.55" y1="513.56" x2="674" y2="513.56" gradientUnits="userSpaceOnUse"><stop offset="0.51" stop-color="#eec7b1"/><stop offset="0.51" stop-color="#e2b69f"/></linearGradient></defs><title>incognito-icon</title><path d="M674,602.87c0,42.45-28.09,77.16-56.92,64.08a22.36,22.36,0,0,0-29.33,10.34c-1.9,3.8-3.92,7.38-6,10.87-19.44,33.45-44.85,54.6-66.79,54.6-22.39,0-48.09-21.92-67.55-56.61-2.08-3.64-4.12-7.38-6-11.35a22.39,22.39,0,0,0-13.65-11.71,22.79,22.79,0,0,0-6.53-1,22.43,22.43,0,0,0-11.33,3.08,31,31,0,0,1-15.72,4.57c-24.18,0-44.58-30.64-44.58-66.92S370,536,393.63,536l1.38.11a22.27,22.27,0,0,0,21.43-12.32,23.12,23.12,0,0,0,2.2-7.21c1.11-8.21,2.27-16.15,3.49-24,.34-2.28.7-4.53,1.07-6.78q1.4-8.58,2.84-16.84c.39-2.18.77-4.38,1.15-6.53,1.32-7.17,2.66-14.21,4.06-21a1.65,1.65,0,0,0,.06-.32c0-.08,0-.18.07-.27h0c16.52-79.7,39.1-132,64.45-149.67.55-.38,1.11-.77,1.67-1.13a37.17,37.17,0,0,1,4.27-2.38,29,29,0,0,1,3.16-1.27c1.09-.39,2.14-.83,3.23-1.1a28.41,28.41,0,0,1,6.77-.9,31,31,0,0,1,3.57.23l.83.12a32.92,32.92,0,0,1,7.77,2.14l.24.1c25,10.46,55.15,56.16,78.29,193.34a.68.68,0,0,0,0,.14q1.3,7.81,2.58,16c.1.53.18,1,.26,1.59q1.38,8.9,2.73,18.26a22.42,22.42,0,0,0,20.45,19.88C655,538.07,674,568,674,602.87Z" transform="translate(-52.03 -109)" fill="url(#a)"/><path d="M969.41,228.22c-6.7-10.47-35.78-19.6-70.09-26.8-9.9-1.8-19.25-3.55-28.27-5.2l4-.22s43-2,43-30c0-25.05-32-32-41-33-1.25-.14,6-3.88,5-8s-13.79-6.64-31-8c-38-3-85,4-85,4s6.82-5.18,3-9c-3-3-8-3-12-3-158,0-185,104-185,104l2.36-.13c-17,3.68-34.32,7.1-51.7,9.7-5.1.76-16.67.81-21.13,0-16.17-2.84-32.29-6.22-48.16-9.74L456,213S429,109,271,109c-4,0-9,0-12,3-3.82,3.82,3,9,3,9s-47-7-85-4c-17.21,1.36-30,4-31,8s6.25,7.86,5,8c-9,1-41,7.95-41,33,0,28,43,30,43,30l.95.05c-10.91,1.93-20.77,3.8-29.21,5.37-34.31,7.2-63.39,16.32-70.08,26.79-3.25,5.06-4,14.85.79,23.76,3.14,5.84,11.1,15.37,29.79,16.85C114.8,416,126.78,471.31,223.44,485.14c8.65,1.24,41.66,4.76,78.52,4.76q54,0,84.91-9.59c-.9,5.53-1.81,10.95-2.66,16.7-38.75,9.63-68.06,52.46-68.06,103.67,0,49.41,27.31,90.9,64,102.43-41.66,14.77-78.56,38-104.78,64.51-50.59,51.08-33.24,60.74-96.14,97.17,0,0,73.57,39.72,171.39,39.72,104.91,0,124.16-71,161.42-71s56.5,71,161.41,71c97.81,0,171.39-39.72,171.39-39.72-62.91-36.43-45.54-46.09-96.14-97.17-26.23-26.46-63.12-49.74-104.78-64.51,36.7-11.53,64-53,64-102.43,0-49-25.6-89.6-61.82-101.83q-1.27-8.4-2.66-16.86c20,5.2,46.13,7.91,78.68,7.91,36.84,0,69.86-3.52,78.51-4.76C897.29,471.3,909.27,416,938.85,268.82c18.7-1.49,26.65-11,29.8-16.85C973.42,243.06,972.64,233.27,969.41,228.22ZM386.72,435c-12.59,10.9-41.74,16.65-84.28,16.65a511.15,511.15,0,0,1-61.76-3.73C171.46,438,162.05,405,137.05,280.58c-3.65-20.36-.64-24.68,1.79-28.16.56-.8,1.09-1.58,1.56-2.39,7.39-12.78,82.77-24.93,124-25h1.12c53.38,0,115.75,9.66,190.5,29.54L449.75,293q-32.49,41.82-52.63,133.21c-2.06,1.82-4.05,3.48-5.91,5C389.64,432.47,388.14,433.7,386.72,435ZM665.51,600.7c0,40.16-26.58,73-53.85,60.62a21.15,21.15,0,0,0-27.75,9.79c-1.8,3.59-3.72,7-5.69,10.28C559.83,713,535.79,733.05,515,733.05c-21.19,0-45.51-20.74-63.92-53.56-2-3.45-3.9-7-5.71-10.74a21.22,21.22,0,0,0-12.92-11.08,21.64,21.64,0,0,0-6.17-.91,21.22,21.22,0,0,0-10.72,2.92A29.43,29.43,0,0,1,400.72,664c-22.87,0-42.17-29-42.17-63.31s19.31-63.3,41.7-63.3l1.31.11A21.21,21.21,0,0,0,423.91,519c1.06-7.76,2.15-15.28,3.3-22.69.33-2.16.67-4.29,1-6.42q1.32-8.12,2.68-15.93c.37-2.06.74-4.14,1.09-6.18,1.26-6.78,2.52-13.44,3.85-19.86a2.68,2.68,0,0,0,0-.3l.06-.25s0,0,0,0c15.63-75.4,37-124.92,61-141.59.52-.37,1.06-.73,1.58-1.08a36.32,36.32,0,0,1,4.05-2.25,27,27,0,0,1,3-1.2c1-.36,2-.78,3.05-1a26.86,26.86,0,0,1,6.41-.85,27.75,27.75,0,0,1,3.37.22c.25,0,.53.06.79.11a31.75,31.75,0,0,1,7.35,2l.23.1c23.68,9.9,52.17,53.13,74.06,182.92a.59.59,0,0,0,0,.13q1.24,7.39,2.45,15.17c.09.5.16,1,.24,1.51q1.31,8.41,2.58,17.28a22.06,22.06,0,0,0,.5,2.8,21.24,21.24,0,0,0,18.85,16C647.56,539.39,665.51,567.7,665.51,600.7ZM890.89,280.47C865.86,405,856.47,438,787.23,447.87a509.86,509.86,0,0,1-61.74,3.73c-42.54,0-71.69-5.75-84.28-16.65-1.43-1.24-2.92-2.47-4.5-3.77-1.06-.87-2.16-1.78-3.27-2.73-12.07-56-29.29-107.9-55.94-139.61l-5.62-34.3C646.65,234.67,709,225,762.4,225h1.11c41.25.1,116.61,12.25,124,25,.47.81,1,1.59,1.55,2.39C891.51,255.89,894.53,260.21,890.89,280.47Z" transform="translate(-52.03 -109)"/></svg>