<?xml version="1.0" encoding="utf-8"?>
<!-- Generator: Adobe Illustrator 28.1.0, SVG Export Plug-In . SVG Version: 6.00 Build 0)  -->
<svg version="1.1" id="Layer_1" xmlns="http://www.w3.org/2000/svg" xmlns:xlink="http://www.w3.org/1999/xlink" x="0px" y="0px"
	 viewBox="0 0 576 512" style="enable-background:new 0 0 576 512;" xml:space="preserve">
<path d="M91.4,162.3C61,188.5,48,225.2,48,272c0,43.9,15.3,74.8,36.8,95c22,20.6,53.7,33,91.2,33h8.4c6.1,0,11.6-3.4,14.3-8.8
	l23.2-46.3l39,19.5l-39-19.5C234.4,319.8,260,304,288,304s53.6,15.8,66.1,40.8l23.2,46.3c2.7,5.4,8.2,8.8,14.3,8.8h8.4
	c37.4,0,69.2-12.4,91.2-33c21.5-20.2,36.8-51.1,36.8-95c0-46.8-13-83.5-43.4-109.7C452.9,134.9,394.3,112,288,112
	S123.1,134.9,91.4,162.3z M0,272C0,160,64,64,288,64s288,96,288,208s-80,176-176,176h-8.4c-24.2,0-46.4-13.7-57.2-35.4l-23.2-46.3
	c-4.4-8.8-13.3-14.3-23.2-14.3s-18.8,5.5-23.2,14.3l-23.2,46.3c-10.8,21.7-33,35.4-57.2,35.4H176C80,448,0,384,0,272z"/>
</svg>
